<svg xmlns="http://www.w3.org/2000/svg" version="1.1" xmlns:xlink="http://www.w3.org/1999/xlink" xmlns:svgjs="http://svgjs.dev/svgjs" width="1440" height="560" preserveAspectRatio="none" viewBox="0 0 1440 560"><g mask="url(&quot;#SvgjsMask1006&quot;)" fill="none"><rect width="1440" height="560" x="0" y="0" fill="rgba(255, 203, 116, 1)"></rect><path d="M0,671.407C123.861,664.903,221.401,573.816,323.644,503.6C422.755,435.535,535.6,376.762,587.18,268.156C639.055,158.93,611.842,33.817,604.067,-86.852C595.618,-217.991,624.727,-367.458,539.768,-467.712C454.741,-568.047,303.095,-566.875,174.383,-593.893C55.484,-618.851,-65.677,-654.867,-181.808,-619.181C-297.295,-583.692,-392.009,-498.517,-460.305,-398.856C-524.225,-305.581,-528.524,-189.994,-551.756,-79.331C-576.756,39.751,-640.121,159.338,-601.732,274.802C-562.3,393.404,-450.607,469.994,-346.25,538.776C-240.922,608.199,-125.975,678.022,0,671.407" fill="#ffaf2a"></path><path d="M1440 1180.327C1557.802 1160.772 1566.009 976.947 1666.169 911.9259999999999 1765.534 847.421 1951.8229999999999 923.976 2000.946 816.175 2050.087 708.3340000000001 1874.292 617.224 1853.635 500.528 1834.09 390.113 1942.917 269.857 1887.033 172.644 1832.3899999999999 77.58999999999997 1695.523 78.72300000000001 1591.405 44.361999999999966 1483.424 8.725999999999999 1377.145-56.712999999999965 1266.092-32.27800000000002 1152.9180000000001-7.375999999999976 1070.028 86.12200000000001 996.0889999999999 175.349 923.42 263.045 845.499 360.71299999999997 846.061 474.604 846.607 585.184 941.9649999999999 666.658 998.982 761.406 1048.875 844.316 1089.654 929.338 1159.812 995.981 1242.545 1074.569 1327.431 1199.013 1440 1180.327" fill="#ffe7be"></path></g><defs><mask id="SvgjsMask1006"><rect width="1440" height="560" fill="#ffffff"></rect></mask></defs></svg>